<?xml version="1.0" encoding="iso-8859-1"?>
<!-- Uploaded to: SVG Repo, www.svgrepo.com, Generator: SVG Repo Mixer Tools -->
<svg height="800px" width="800px" version="1.1" id="Layer_1" xmlns="http://www.w3.org/2000/svg" xmlns:xlink="http://www.w3.org/1999/xlink" 
	 viewBox="0 0 392.701 392.701" xml:space="preserve">
<g>
	<path style="fill:#FFC10D;" d="M23.5,128.742c6.4,3.879,21.527,10.925,53.527,17.131l1.875-2.651
		C74.442,96.031,64.939,73.21,58.991,63.19c-5.624,5.042-10.408,10.731-14.158,17.325C35.266,97.324,28.155,113.485,23.5,128.742z"
		/>
	<path style="fill:#FFC10D;" d="M333.739,63.126c-6.271,10.214-15.709,32.84-20.105,79.838l2.004,2.909
		c32-6.271,47.127-13.317,53.527-17.131c-4.655-15.321-11.766-31.418-21.333-48.226C344.276,73.986,339.428,68.168,333.739,63.126z"
		/>
</g>
<path style="fill:#56ACE0;" d="M315.508,51.36c-31.224-12.347-52.558-13.188-61.673-22.885l-47.838,83.782
	c-4.267,7.434-14.933,7.434-19.135,0L138.959,28.41c-8.339,9.244-40.469,13.964-61.673,22.885
	c17.455,27.992,40.081,104.21,14.739,309.398c22.497,5.947,92.057,19.459,208.549-1.099
	C275.428,154.988,298.313,78.899,315.508,51.36z"/>
<path style="fill:#FFFFFF;" d="M228.882,28.023c-13.511,2.651-25.729,3.685-36.525,3.685c-10.667,0-20.04-1.034-27.798-2.392
	L196.3,84.847L228.882,28.023z"/>
<g>
	<path style="fill:#194F82;" d="M392.244,130.099c-4.913-19.071-13.446-39.434-25.341-60.38
		c-11.442-20.105-30.384-35.232-53.333-42.602l-44.347-14.222l-10.537-9.891c-2.392-2.327-6.594-3.943-10.796-2.392V0.548
		c-62.448,20.17-100.655,1.099-101.301,0.776v0.065c-1.099-0.517-6.594-3.426-12.606,1.681l-10.537,9.956L79.096,27.247
		c-22.949,7.37-41.891,22.497-53.333,42.602c-11.83,20.945-20.364,41.309-25.277,60.38c-0.84,3.168-0.323,6.659,1.681,9.115
		c16.679,20.428,78.222,29.414,78.416,29.414c2.133,45.899-0.065,109.834-11.442,198.465c-0.646,4.978,2.263,9.762,6.853,11.572
		c63.677,18.747,143.774,18.166,238.545,0.517c5.624-1.099,9.503-6.335,8.792-12.154c-11.378-88.695-13.705-152.566-11.572-198.335
		c0,0,63.03-9.891,78.61-29.543C392.438,136.564,393.084,133.267,392.244,130.099z M92.026,360.758
		C117.367,155.57,94.805,79.223,77.286,51.36c21.075-8.857,53.333-13.576,61.673-22.885l47.838,83.782
		c4.267,7.434,14.933,7.434,19.135,0l47.838-83.782c9.18,9.762,30.448,10.537,61.673,22.885
		c-17.131,27.669-40.081,103.628-14.933,308.299C184.082,380.216,114.523,366.705,92.026,360.758z M58.927,63.255
		c6.012,10.02,15.451,32.84,19.911,80.032l-1.875,2.65c-32-6.271-47.127-13.317-53.527-17.131
		c4.655-15.321,11.766-31.418,21.333-48.226C48.454,74.051,53.302,68.233,58.927,63.255z M164.559,29.315
		c7.822,1.422,17.067,2.392,27.798,2.392c10.796,0,23.014-1.034,36.525-3.685l-32.517,56.889L164.559,29.315z M315.702,145.938
		l-2.004-2.909c4.396-46.998,13.834-69.624,20.105-79.838c5.624,5.042,10.408,10.796,14.222,17.39
		c9.503,16.743,16.679,32.97,21.333,48.226C362.894,132.62,347.767,139.667,315.702,145.938z"/>
	<path style="fill:#194F82;" d="M235.411,148.265c-6.853,0-12.541,1.681-16.743,5.042c-4.267-3.297-9.826-5.042-16.743-5.042
		c-14.222,0-25.794,12.283-25.794,27.41c0,21.075,34.78,52.752,38.723,56.242c2.521,2.004,5.172,1.939,7.822,0
		c3.943-3.556,38.723-35.685,38.723-56.242C261.205,160.548,249.634,148.265,235.411,148.265z M218.603,219.635
		c-13.317-12.671-30.901-33.099-30.901-44.024c0-8.727,6.335-15.774,14.222-15.774c7.822,0,10.408,2.909,11.766,5.107
		c2.327,3.814,7.822,3.556,9.956,0c1.293-2.133,4.008-5.107,11.766-5.107c7.822,0,14.222,7.111,14.222,15.774
		C249.634,186.277,231.921,206.835,218.603,219.635z"/>
	<path style="fill:#194F82;" d="M138.506,232.047h30.836c3.814,0,6.982-3.103,6.982-6.788c0-3.879-3.168-6.982-6.982-6.982h-24.049
		v-61.802c0-3.814-3.103-6.788-6.788-6.788c-3.879,0-6.982,3.103-6.982,6.788v68.784
		C131.525,229.008,134.628,232.047,138.506,232.047z"/>
	<path style="fill:#194F82;" d="M195.848,248.919c-3.556-1.422-7.499,0.323-8.857,3.879l-21.01,53.269l-21.786-53.398
		c-1.422-3.491-5.43-5.172-8.857-3.814c-3.556,1.422-5.236,5.43-3.814,8.986l28.057,69.172c1.099,2.65,3.62,4.331,6.465,4.331
		c2.715,0,5.301-1.745,6.335-4.331l27.281-69.301C201.02,254.221,199.274,250.342,195.848,248.919z"/>
	<path style="fill:#194F82;" d="M254.224,262.689c3.879,0,6.982-3.103,6.982-6.982c0-3.814-3.103-6.788-6.982-6.788h-37.689
		c-3.879,0-6.982,3.103-6.982,6.788v68.784c0,3.814,3.103,6.788,6.982,6.788h37.689c3.879,0,6.982-3.103,6.982-6.788
		c0-3.879-3.103-6.982-6.982-6.982h-30.836v-20.622h24.048c3.814,0,6.788-3.103,6.788-6.788c0-3.814-3.103-6.788-6.788-6.788
		h-24.048v-20.622L254.224,262.689L254.224,262.689z"/>
</g>
<path style="fill:#FFC10D;" d="M201.925,159.901c-7.822,0-14.222,7.111-14.222,15.774c0,10.925,17.648,31.354,30.901,44.024
	c13.382-12.8,30.966-33.487,30.966-44.024c0-8.727-6.335-15.774-14.222-15.774c-7.822,0-10.408,2.909-11.766,5.107
	c-1.099,1.681-2.909,2.78-4.913,2.78l0,0c-2.004,0-3.943-1.099-4.913-2.78C212.333,162.746,209.682,159.901,201.925,159.901z"/>
</svg>